<svg xmlns="http://www.w3.org/2000/svg" width="89" height="26.273" viewBox="0 0 89 26.273">
  <path id="logo" d="M22.064,20.9a5.509,5.509,0,0,1-.493,2.3,7.5,7.5,0,0,1-1.232,1.888,4.712,4.712,0,0,1-1.888,1.232,5.509,5.509,0,0,1-2.3.493H6.3V7.1h9.852a5.509,5.509,0,0,1,2.3.493A7.5,7.5,0,0,1,20.34,8.827a4.712,4.712,0,0,1,1.232,1.888,5.509,5.509,0,0,1,.493,2.3,5.931,5.931,0,0,1-.575,2.3,6.849,6.849,0,0,1-.657.985,3.337,3.337,0,0,1-.821.739,3.58,3.58,0,0,1,.9.739,6.849,6.849,0,0,1,.657.985,4.748,4.748,0,0,1,.411,1.149A3.383,3.383,0,0,1,22.064,20.9Zm-11.823,1.97h5.911a2.4,2.4,0,0,0,.739-.164,2.88,2.88,0,0,0,.657-.411,1.788,1.788,0,0,0,.411-.657,2.4,2.4,0,0,0,.164-.739,2.4,2.4,0,0,0-.164-.739,2.88,2.88,0,0,0-.411-.657,1.788,1.788,0,0,0-.657-.411,2.4,2.4,0,0,0-.739-.164H10.241v3.941Zm0-7.882h5.911a2.4,2.4,0,0,0,.739-.164,2.88,2.88,0,0,0,.657-.411,1.788,1.788,0,0,0,.411-.657,2.4,2.4,0,0,0,.164-.739,2.4,2.4,0,0,0-.164-.739,2.88,2.88,0,0,0-.411-.657,1.788,1.788,0,0,0-.657-.411,2.4,2.4,0,0,0-.739-.164H10.241v3.941ZM28.222,32.391V28.614h2.053a4.805,4.805,0,0,0,1.067-.164,2.775,2.775,0,0,0,.985-.493,3.135,3.135,0,0,0,.739-.739,2.238,2.238,0,0,0,.493-.985l-1.232.493a3.4,3.4,0,0,1-1.314.246,6.691,6.691,0,0,1-2.545-.493,6.013,6.013,0,0,1-2.135-1.4,6.421,6.421,0,0,1-1.4-2.135,7.807,7.807,0,0,1-.493-2.874V11.947h3.777v8.128a3.835,3.835,0,0,0,.246,1.4,2.094,2.094,0,0,0,.657.985,2.126,2.126,0,0,0,.9.575,2.609,2.609,0,0,0,1.149.164,2.273,2.273,0,0,0,1.067-.246,2.566,2.566,0,0,0,.9-.739,3.075,3.075,0,0,0,.575-.985,4.736,4.736,0,0,0,.246-1.149V11.947h3.777V24.92a9,9,0,0,1-.575,2.956,6.875,6.875,0,0,1-1.642,2.381A9.476,9.476,0,0,1,33.148,31.9a7.037,7.037,0,0,1-2.956.575Zm16.092-5.583H40.537V6.2h3.777Zm17.078,0h-.9L59.01,24.755a6.2,6.2,0,0,1-1.149.9l-1.232.739a6.987,6.987,0,0,1-1.4.493,8.089,8.089,0,0,1-1.4.164,7.3,7.3,0,0,1-2.956-.575A6.875,6.875,0,0,1,48.5,24.837a7.61,7.61,0,0,1-1.642-2.463,7.817,7.817,0,0,1-.575-3.12,8.093,8.093,0,0,1,.575-3.12A6.5,6.5,0,0,1,48.5,13.671a8.2,8.2,0,0,1,2.381-1.642,7.037,7.037,0,0,1,2.956-.575,4,4,0,0,1,.985.082c.328.082.739.164,1.067.246a1.957,1.957,0,0,1,.9.493,1.611,1.611,0,0,1,.739.739V6.2h3.777V26.808Zm-3.777-7.471a3.22,3.22,0,0,0-.328-1.478,4.411,4.411,0,0,0-.821-1.314,3.993,3.993,0,0,0-1.149-.9,3.006,3.006,0,0,0-1.478-.328,4.649,4.649,0,0,0-1.478.246,2.723,2.723,0,0,0-1.149.821,4.6,4.6,0,0,0-.821,1.232,5.294,5.294,0,0,0-.246,1.642,4.78,4.78,0,0,0,.246,1.56,4.411,4.411,0,0,0,.821,1.314,6.2,6.2,0,0,0,1.149.9,3.006,3.006,0,0,0,1.478.328,3.22,3.22,0,0,0,1.478-.328,3.132,3.132,0,0,0,1.149-.9,7.09,7.09,0,0,0,.821-1.314A3.22,3.22,0,0,0,57.615,19.337ZM70.094,23.2a.893.893,0,0,0,.411.082h.411a4.805,4.805,0,0,0,1.067-.164,5.022,5.022,0,0,0,.985-.411,3.215,3.215,0,0,0,.821-.657,3.39,3.39,0,0,0,.575-.9l2.709,2.792a6.173,6.173,0,0,1-1.232,1.314,4.659,4.659,0,0,1-1.478.985,9.785,9.785,0,0,1-1.642.657,6.4,6.4,0,0,1-1.806.246,7.3,7.3,0,0,1-2.956-.575,6.875,6.875,0,0,1-2.381-1.642,7.609,7.609,0,0,1-1.642-2.463,7.817,7.817,0,0,1-.575-3.12,8.224,8.224,0,0,1,.575-3.2,6.5,6.5,0,0,1,1.642-2.463,6.669,6.669,0,0,1,2.381-1.56,7.037,7.037,0,0,1,2.956-.575,6.4,6.4,0,0,1,1.806.246,5.733,5.733,0,0,1,1.642.657,7.711,7.711,0,0,1,1.478.985,9.335,9.335,0,0,1,1.232,1.314Zm1.97-7.718a1.041,1.041,0,0,0-.493-.082H71.08a4.649,4.649,0,0,0-1.478.246,3.7,3.7,0,0,0-1.149.821,4.6,4.6,0,0,0-.821,1.232,5.294,5.294,0,0,0-.246,1.642v.493a1.041,1.041,0,0,0,.082.493c0,.164.082.328.082.493.082.164.082.328.164.411ZM82.82,26.808H79.044V12.029h.9l1.232,1.724a5.285,5.285,0,0,1,2.053-1.232,5.827,5.827,0,0,1,2.381-.411H88.9v3.777H85.612a2.9,2.9,0,0,0-1.149.246,3.39,3.39,0,0,0-.9.575,2.126,2.126,0,0,0-.575.9,2.623,2.623,0,0,0-.246,1.149v8.046Zm12.48-1.4a2.951,2.951,0,0,1-.164.9,1.477,1.477,0,0,1-.493.739,1.939,1.939,0,0,1-.739.493,1.624,1.624,0,0,1-.9.164,2.951,2.951,0,0,1-.9-.164,1.67,1.67,0,0,1-.739-.493,1.939,1.939,0,0,1-.493-.739,1.768,1.768,0,0,1-.164-.9,2.951,2.951,0,0,1,.164-.9l.493-.739a1.939,1.939,0,0,1,.739-.493,1.768,1.768,0,0,1,.9-.164,2.952,2.952,0,0,1,.9.164,3.856,3.856,0,0,1,.739.493,1.939,1.939,0,0,1,.493.739A1.624,1.624,0,0,1,95.3,25.412Z" transform="translate(-6.3 -6.2)" fill="#597f98"/>
</svg>
